<svg width="236" height="217" viewBox="0 0 236 217" fill="none" xmlns="http://www.w3.org/2000/svg">
<path d="M19.98 184.693C19.404 183.637 18.612 182.833 17.604 182.281C16.596 181.729 15.42 181.453 14.076 181.453C12.588 181.453 11.268 181.789 10.116 182.461C8.964 183.133 8.064 184.093 7.416 185.341C6.768 186.589 6.444 188.029 6.444 189.661C6.444 191.341 6.768 192.805 7.416 194.053C8.088 195.301 9.012 196.261 10.188 196.933C11.364 197.605 12.732 197.941 14.292 197.941C16.212 197.941 17.784 197.437 19.008 196.429C20.232 195.397 21.036 193.969 21.42 192.145H12.78V188.293H26.388V192.685C26.052 194.437 25.332 196.057 24.228 197.545C23.124 199.033 21.696 200.233 19.944 201.145C18.216 202.033 16.272 202.477 14.112 202.477C11.688 202.477 9.492 201.937 7.524 200.857C5.58 199.753 4.044 198.229 2.916 196.285C1.812 194.341 1.26 192.133 1.26 189.661C1.26 187.189 1.812 184.981 2.916 183.037C4.044 181.069 5.58 179.545 7.524 178.465C9.492 177.361 11.676 176.809 14.076 176.809C16.908 176.809 19.368 177.505 21.456 178.897C23.544 180.265 24.984 182.197 25.776 184.693H19.98ZM28.8208 192.217C28.8208 190.201 29.2168 188.413 30.0088 186.853C30.8248 185.293 31.9168 184.093 33.2848 183.253C34.6768 182.413 36.2248 181.993 37.9288 181.993C39.4168 181.993 40.7128 182.293 41.8168 182.893C42.9448 183.493 43.8448 184.249 44.5168 185.161V182.317H49.5928V202.261H44.5168V199.345C43.8688 200.281 42.9688 201.061 41.8168 201.685C40.6888 202.285 39.3808 202.585 37.8928 202.585C36.2128 202.585 34.6768 202.153 33.2848 201.289C31.9168 200.425 30.8248 199.213 30.0088 197.653C29.2168 196.069 28.8208 194.257 28.8208 192.217ZM44.5168 192.289C44.5168 191.065 44.2768 190.021 43.7968 189.157C43.3168 188.269 42.6688 187.597 41.8528 187.141C41.0368 186.661 40.1608 186.421 39.2248 186.421C38.2888 186.421 37.4248 186.649 36.6328 187.105C35.8408 187.561 35.1928 188.233 34.6888 189.121C34.2088 189.985 33.9688 191.017 33.9688 192.217C33.9688 193.417 34.2088 194.473 34.6888 195.385C35.1928 196.273 35.8408 196.957 36.6328 197.437C37.4488 197.917 38.3128 198.157 39.2248 198.157C40.1608 198.157 41.0368 197.929 41.8528 197.473C42.6688 196.993 43.3168 196.321 43.7968 195.457C44.2768 194.569 44.5168 193.513 44.5168 192.289ZM79.2833 182.029C81.7313 182.029 83.6993 182.785 85.1873 184.297C86.6993 185.785 87.4553 187.873 87.4553 190.561V202.261H82.4153V191.245C82.4153 189.685 82.0193 188.497 81.2273 187.681C80.4353 186.841 79.3553 186.421 77.9873 186.421C76.6193 186.421 75.5273 186.841 74.7113 187.681C73.9193 188.497 73.5233 189.685 73.5233 191.245V202.261H68.4833V191.245C68.4833 189.685 68.0873 188.497 67.2953 187.681C66.5033 186.841 65.4233 186.421 64.0553 186.421C62.6633 186.421 61.5593 186.841 60.7433 187.681C59.9513 188.497 59.5553 189.685 59.5553 191.245V202.261H54.5153V182.317H59.5553V184.729C60.2033 183.889 61.0313 183.229 62.0393 182.749C63.0713 182.269 64.1993 182.029 65.4233 182.029C66.9833 182.029 68.3753 182.365 69.5993 183.037C70.8233 183.685 71.7713 184.621 72.4433 185.845C73.0913 184.693 74.0273 183.769 75.2513 183.073C76.4993 182.377 77.8433 182.029 79.2833 182.029ZM110.778 191.857C110.778 192.577 110.73 193.225 110.634 193.801H96.0539C96.1739 195.241 96.6779 196.369 97.5659 197.185C98.4539 198.001 99.5459 198.409 100.842 198.409C102.714 198.409 104.046 197.605 104.838 195.997H110.274C109.698 197.917 108.594 199.501 106.962 200.749C105.33 201.973 103.326 202.585 100.95 202.585C99.0299 202.585 97.3019 202.165 95.7659 201.325C94.2539 200.461 93.0659 199.249 92.2019 197.689C91.3619 196.129 90.9419 194.329 90.9419 192.289C90.9419 190.225 91.3619 188.413 92.2019 186.853C93.0419 185.293 94.2179 184.093 95.7299 183.253C97.2419 182.413 98.9819 181.993 100.95 181.993C102.846 181.993 104.538 182.401 106.026 183.217C107.538 184.033 108.702 185.197 109.518 186.709C110.358 188.197 110.778 189.913 110.778 191.857ZM105.558 190.417C105.534 189.121 105.066 188.089 104.154 187.321C103.242 186.529 102.126 186.133 100.806 186.133C99.5579 186.133 98.5019 186.517 97.6379 187.285C96.7979 188.029 96.2819 189.073 96.0899 190.417H105.558ZM119.497 181.201V187.501H127.957V191.497H119.497V198.157H129.037V202.261H114.457V177.097H129.037V181.201H119.497ZM141.249 202.585C139.617 202.585 138.153 202.297 136.857 201.721C135.561 201.121 134.529 200.317 133.761 199.309C133.017 198.301 132.609 197.185 132.537 195.961H137.613C137.709 196.729 138.081 197.365 138.729 197.869C139.401 198.373 140.229 198.625 141.213 198.625C142.173 198.625 142.917 198.433 143.445 198.049C143.997 197.665 144.273 197.173 144.273 196.573C144.273 195.925 143.937 195.445 143.265 195.133C142.617 194.797 141.573 194.437 140.133 194.053C138.645 193.693 137.421 193.321 136.461 192.937C135.525 192.553 134.709 191.965 134.013 191.173C133.341 190.381 133.005 189.313 133.005 187.969C133.005 186.865 133.317 185.857 133.941 184.945C134.589 184.033 135.501 183.313 136.677 182.785C137.877 182.257 139.281 181.993 140.889 181.993C143.265 181.993 145.161 182.593 146.577 183.793C147.993 184.969 148.773 186.565 148.917 188.581H144.093C144.021 187.789 143.685 187.165 143.085 186.709C142.509 186.229 141.729 185.989 140.745 185.989C139.833 185.989 139.125 186.157 138.621 186.493C138.141 186.829 137.901 187.297 137.901 187.897C137.901 188.569 138.237 189.085 138.909 189.445C139.581 189.781 140.625 190.129 142.041 190.489C143.481 190.849 144.669 191.221 145.605 191.605C146.541 191.989 147.345 192.589 148.017 193.405C148.713 194.197 149.073 195.253 149.097 196.573C149.097 197.725 148.773 198.757 148.125 199.669C147.501 200.581 146.589 201.301 145.389 201.829C144.213 202.333 142.833 202.585 141.249 202.585ZM159.102 186.457V196.105C159.102 196.777 159.258 197.269 159.57 197.581C159.906 197.869 160.458 198.013 161.226 198.013H163.566V202.261H160.398C156.15 202.261 154.026 200.197 154.026 196.069V186.457H151.65V182.317H154.026V177.385H159.102V182.317H163.566V186.457H159.102ZM185.731 191.857C185.731 192.577 185.683 193.225 185.587 193.801H171.007C171.127 195.241 171.631 196.369 172.519 197.185C173.407 198.001 174.499 198.409 175.795 198.409C177.667 198.409 178.999 197.605 179.791 195.997H185.227C184.651 197.917 183.547 199.501 181.915 200.749C180.283 201.973 178.279 202.585 175.903 202.585C173.983 202.585 172.255 202.165 170.719 201.325C169.207 200.461 168.019 199.249 167.155 197.689C166.315 196.129 165.895 194.329 165.895 192.289C165.895 190.225 166.315 188.413 167.155 186.853C167.995 185.293 169.171 184.093 170.683 183.253C172.195 182.413 173.935 181.993 175.903 181.993C177.799 181.993 179.491 182.401 180.979 183.217C182.491 184.033 183.655 185.197 184.471 186.709C185.311 188.197 185.731 189.913 185.731 191.857ZM180.511 190.417C180.487 189.121 180.019 188.089 179.107 187.321C178.195 186.529 177.079 186.133 175.759 186.133C174.511 186.133 173.455 186.517 172.591 187.285C171.751 188.029 171.235 189.073 171.043 190.417H180.511ZM194.45 175.621V202.261H189.41V175.621H194.45ZM198.133 192.217C198.133 190.201 198.529 188.413 199.321 186.853C200.137 185.293 201.229 184.093 202.597 183.253C203.989 182.413 205.537 181.993 207.241 181.993C208.729 181.993 210.025 182.293 211.129 182.893C212.257 183.493 213.157 184.249 213.829 185.161V182.317H218.905V202.261H213.829V199.345C213.181 200.281 212.281 201.061 211.129 201.685C210.001 202.285 208.693 202.585 207.205 202.585C205.525 202.585 203.989 202.153 202.597 201.289C201.229 200.425 200.137 199.213 199.321 197.653C198.529 196.069 198.133 194.257 198.133 192.217ZM213.829 192.289C213.829 191.065 213.589 190.021 213.109 189.157C212.629 188.269 211.981 187.597 211.165 187.141C210.349 186.661 209.473 186.421 208.537 186.421C207.601 186.421 206.737 186.649 205.945 187.105C205.153 187.561 204.505 188.233 204.001 189.121C203.521 189.985 203.281 191.017 203.281 192.217C203.281 193.417 203.521 194.473 204.001 195.385C204.505 196.273 205.153 196.957 205.945 197.437C206.761 197.917 207.625 198.157 208.537 198.157C209.473 198.157 210.349 197.929 211.165 197.473C211.981 196.993 212.629 196.321 213.109 195.457C213.589 194.569 213.829 193.513 213.829 192.289ZM228.868 185.413C229.516 184.357 230.356 183.529 231.388 182.929C232.444 182.329 233.644 182.029 234.988 182.029V187.321H233.656C232.072 187.321 230.872 187.693 230.056 188.437C229.264 189.181 228.868 190.477 228.868 192.325V202.261H223.828V182.317H228.868V185.413Z" fill="black"/>
<path d="M151.067 121.971C150.071 121.974 149.089 121.748 148.204 121.311L116.462 105.298L84.7196 121.311C83.6888 121.833 82.5267 122.066 81.3654 121.984C80.204 121.901 79.0899 121.507 78.1498 120.844C77.2097 120.182 76.4812 119.279 76.0472 118.238C75.6133 117.196 75.4912 116.059 75.6949 114.954L81.9188 81.1899L56.2763 57.2013C55.4762 56.432 54.9087 55.4673 54.6346 54.4108C54.3604 53.3542 54.3901 52.2457 54.7203 51.2042C55.081 50.1383 55.7446 49.1912 56.6357 48.4704C57.5268 47.7496 58.6097 47.2839 59.7617 47.1261L95.238 42.1485L110.86 11.3831C111.37 10.3691 112.165 9.514 113.156 8.91567C114.147 8.31734 115.292 8 116.462 8C117.631 8 118.776 8.31734 119.767 8.91567C120.758 9.514 121.553 10.3691 122.063 11.3831L137.872 42.0885L173.348 47.0661C174.5 47.2239 175.583 47.6896 176.474 48.4104C177.365 49.1313 178.029 50.0783 178.39 51.1442C178.72 52.1857 178.749 53.2943 178.475 54.3508C178.201 55.4074 177.634 56.3721 176.834 57.1413L151.191 81.13L157.415 114.894C157.637 116.018 157.521 117.18 157.08 118.243C156.639 119.306 155.891 120.225 154.925 120.891C153.798 121.652 152.441 122.032 151.067 121.971ZM116.462 92.5845C117.459 92.5602 118.446 92.7877 119.325 93.2442L142.789 105.239L138.308 79.9905C138.134 79.0265 138.207 78.0361 138.522 77.1057C138.836 76.1754 139.383 75.3333 140.112 74.653L158.784 57.0814L132.644 53.3631C131.685 53.1772 130.786 52.7762 130.018 52.1927C129.25 51.6092 128.636 50.8596 128.225 50.0047L116.462 27.5154L104.698 50.0047C104.248 50.8665 103.589 51.6109 102.776 52.1747C101.963 52.7385 101.021 53.105 100.03 53.2432L73.8899 56.9614L92.5617 74.5331C93.2916 75.2134 93.8377 76.0554 94.1523 76.9858C94.4669 77.9161 94.5405 78.9065 94.3666 79.8705L89.8854 104.819L113.35 92.8244C114.344 92.4682 115.421 92.3852 116.462 92.5845Z" fill="#770F32"/>
<path d="M151.067 121.971C150.071 121.974 149.089 121.748 148.204 121.311L116.462 105.298L84.7196 121.311C83.6888 121.833 82.5267 122.066 81.3654 121.984C80.204 121.901 79.0899 121.507 78.1498 120.844C77.2097 120.182 76.4812 119.279 76.0472 118.238C75.6133 117.196 75.4912 116.059 75.6949 114.954L81.9188 81.1899L56.2763 57.2013C55.4762 56.432 54.9087 55.4673 54.6346 54.4108C54.3604 53.3542 54.3901 52.2457 54.7203 51.2042C55.081 50.1383 55.7446 49.1912 56.6357 48.4704C57.5268 47.7496 58.6097 47.2839 59.7617 47.1261L95.238 42.1485L110.86 11.3831C111.37 10.3691 112.165 9.514 113.156 8.91567C114.147 8.31734 115.292 8 116.462 8C117.631 8 118.776 8.31734 119.767 8.91567C120.758 9.514 121.553 10.3691 122.063 11.3831L137.872 42.0885L173.348 47.0661C174.5 47.2239 175.583 47.6896 176.474 48.4104C177.365 49.1313 178.029 50.0783 178.39 51.1442C178.72 52.1857 178.749 53.2943 178.475 54.3508C178.201 55.4074 177.634 56.3721 176.834 57.1413L151.191 81.13L157.415 114.894C157.637 116.018 157.521 117.18 157.08 118.243C156.639 119.306 155.891 120.225 154.925 120.891C153.798 121.652 152.441 122.032 151.067 121.971ZM116.462 92.5845C117.459 92.5602 118.446 92.7877 119.325 93.2442L142.789 105.239L138.308 79.9905C138.134 79.0265 138.207 78.0361 138.522 77.1057C138.836 76.1754 139.383 75.3333 140.112 74.653L158.784 57.0814L132.644 53.3631C131.685 53.1772 130.786 52.7762 130.018 52.1927C129.25 51.6092 128.636 50.8596 128.225 50.0047L116.462 27.5154L104.698 50.0047C104.248 50.8665 103.589 51.6109 102.776 52.1747C101.963 52.7385 101.021 53.105 100.03 53.2432L73.8899 56.9614L92.5617 74.5331C93.2916 75.2134 93.8377 76.0554 94.1523 76.9858C94.4669 77.9161 94.5405 78.9065 94.3666 79.8705L89.8854 104.819L113.35 92.8244C114.344 92.4682 115.421 92.3852 116.462 92.5845Z" fill="url(#paint0_angular_150_242)"/>
<path d="M151.067 121.971C150.071 121.974 149.089 121.748 148.204 121.311L116.462 105.298L84.7196 121.311C83.6888 121.833 82.5267 122.066 81.3654 121.984C80.204 121.901 79.0899 121.507 78.1498 120.844C77.2097 120.182 76.4812 119.279 76.0472 118.238C75.6133 117.196 75.4912 116.059 75.6949 114.954L81.9188 81.1899L56.2763 57.2013C55.4762 56.432 54.9087 55.4673 54.6346 54.4108C54.3604 53.3542 54.3901 52.2457 54.7203 51.2042C55.081 50.1383 55.7446 49.1912 56.6357 48.4704C57.5268 47.7496 58.6097 47.2839 59.7617 47.1261L95.238 42.1485L110.86 11.3831C111.37 10.3691 112.165 9.514 113.156 8.91567C114.147 8.31734 115.292 8 116.462 8C117.631 8 118.776 8.31734 119.767 8.91567C120.758 9.514 121.553 10.3691 122.063 11.3831L137.872 42.0885L173.348 47.0661C174.5 47.2239 175.583 47.6896 176.474 48.4104C177.365 49.1313 178.029 50.0783 178.39 51.1442C178.72 52.1857 178.749 53.2943 178.475 54.3508C178.201 55.4074 177.634 56.3721 176.834 57.1413L151.191 81.13L157.415 114.894C157.637 116.018 157.521 117.18 157.08 118.243C156.639 119.306 155.891 120.225 154.925 120.891C153.798 121.652 152.441 122.032 151.067 121.971ZM116.462 92.5845C117.459 92.5602 118.446 92.7877 119.325 93.2442L142.789 105.239L138.308 79.9905C138.134 79.0265 138.207 78.0361 138.522 77.1057C138.836 76.1754 139.383 75.3333 140.112 74.653L158.784 57.0814L132.644 53.3631C131.685 53.1772 130.786 52.7762 130.018 52.1927C129.25 51.6092 128.636 50.8596 128.225 50.0047L116.462 27.5154L104.698 50.0047C104.248 50.8665 103.589 51.6109 102.776 52.1747C101.963 52.7385 101.021 53.105 100.03 53.2432L73.8899 56.9614L92.5617 74.5331C93.2916 75.2134 93.8377 76.0554 94.1523 76.9858C94.4669 77.9161 94.5405 78.9065 94.3666 79.8705L89.8854 104.819L113.35 92.8244C114.344 92.4682 115.421 92.3852 116.462 92.5845Z" stroke="url(#paint1_angular_150_242)"/>
<path d="M114.569 95.9275C114.222 95.6776 113.939 95.3519 113.744 94.9775L106.815 81.4462L91.7007 78.959C91.2093 78.879 90.7463 78.6662 90.3641 78.3447C89.9819 78.0232 89.696 77.6059 89.5388 77.1403C89.3816 76.6747 89.3595 76.1795 89.475 75.7109C89.5904 75.2423 89.8388 74.8191 90.1919 74.4895L100.982 64.416L98.2097 49.673C98.1285 49.2058 98.178 48.7299 98.3528 48.2964C98.5277 47.8629 98.8213 47.488 99.2022 47.2122C99.5998 46.9356 100.072 46.7764 100.566 46.7527C101.06 46.729 101.555 46.8416 101.995 47.0779L115.585 54.3128L128.872 47.6448C129.308 47.4237 129.803 47.3296 130.3 47.3733C130.797 47.4169 131.276 47.5965 131.682 47.8915C132.088 48.1865 132.405 48.585 132.596 49.0414C132.787 49.4977 132.844 49.9934 132.762 50.4716L130.404 65.0497L141.45 75.7179C141.809 76.063 142.066 76.4968 142.191 76.9703C142.317 77.4437 142.305 77.9377 142.158 78.3963C142.006 78.8388 141.733 79.2286 141.368 79.5238C141.003 79.819 140.559 80.0085 140.085 80.0719L125.05 81.8744L118.582 95.0888C118.372 95.5326 118.034 95.9041 117.61 96.1592C117.185 96.4144 116.69 96.5427 116.185 96.5289C115.599 96.5069 115.031 96.2954 114.569 95.9275ZM110.064 77.0616C110.417 77.305 110.701 77.6324 110.889 78.0115L115.971 88.0685L120.868 78.2307C121.054 77.8543 121.333 77.5313 121.68 77.2899C122.027 77.0484 122.432 76.8958 122.859 76.8454L133.833 75.4969L125.707 67.6188C125.422 67.3128 125.212 66.9475 125.094 66.5525C124.977 66.1576 124.955 65.7441 125.031 65.3455L126.694 54.6217L116.862 59.4092C116.485 59.5928 116.066 59.6831 115.64 59.6725C115.214 59.6619 114.793 59.5507 114.414 59.3482L104.387 54.0346L106.379 64.8058C106.459 65.2246 106.433 65.6528 106.304 66.053C106.176 66.4532 105.948 66.8133 105.642 67.1019L97.7094 74.5749L108.922 76.3591C109.358 76.4871 109.754 76.7303 110.064 77.0616Z" fill="#770F32"/>
<path d="M114.569 95.9275C114.222 95.6776 113.939 95.3519 113.744 94.9775L106.815 81.4462L91.7007 78.959C91.2093 78.879 90.7463 78.6662 90.3641 78.3447C89.9819 78.0232 89.696 77.6059 89.5388 77.1403C89.3816 76.6747 89.3595 76.1795 89.475 75.7109C89.5904 75.2423 89.8388 74.8191 90.1919 74.4895L100.982 64.416L98.2097 49.673C98.1285 49.2058 98.178 48.7299 98.3528 48.2964C98.5277 47.8629 98.8213 47.488 99.2022 47.2122C99.5998 46.9356 100.072 46.7764 100.566 46.7527C101.06 46.729 101.555 46.8416 101.995 47.0779L115.585 54.3128L128.872 47.6448C129.308 47.4237 129.803 47.3296 130.3 47.3733C130.797 47.4169 131.276 47.5965 131.682 47.8915C132.088 48.1865 132.405 48.585 132.596 49.0414C132.787 49.4977 132.844 49.9934 132.762 50.4716L130.404 65.0497L141.45 75.7179C141.809 76.063 142.066 76.4968 142.191 76.9703C142.317 77.4437 142.305 77.9377 142.158 78.3963C142.006 78.8388 141.733 79.2286 141.368 79.5238C141.003 79.819 140.559 80.0085 140.085 80.0719L125.05 81.8744L118.582 95.0888C118.372 95.5326 118.034 95.9041 117.61 96.1592C117.185 96.4144 116.69 96.5427 116.185 96.5289C115.599 96.5069 115.031 96.2954 114.569 95.9275ZM110.064 77.0616C110.417 77.305 110.701 77.6324 110.889 78.0115L115.971 88.0685L120.868 78.2307C121.054 77.8543 121.333 77.5313 121.68 77.2899C122.027 77.0484 122.432 76.8958 122.859 76.8454L133.833 75.4969L125.707 67.6188C125.422 67.3128 125.212 66.9475 125.094 66.5525C124.977 66.1576 124.955 65.7441 125.031 65.3455L126.694 54.6217L116.862 59.4092C116.485 59.5928 116.066 59.6831 115.64 59.6725C115.214 59.6619 114.793 59.5507 114.414 59.3482L104.387 54.0346L106.379 64.8058C106.459 65.2246 106.433 65.6528 106.304 66.053C106.176 66.4532 105.948 66.8133 105.642 67.1019L97.7094 74.5749L108.922 76.3591C109.358 76.4871 109.754 76.7303 110.064 77.0616Z" fill="url(#paint2_angular_150_242)"/>
<path d="M114.569 95.9275C114.222 95.6776 113.939 95.3519 113.744 94.9775L106.815 81.4462L91.7007 78.959C91.2093 78.879 90.7463 78.6662 90.3641 78.3447C89.9819 78.0232 89.696 77.6059 89.5388 77.1403C89.3816 76.6747 89.3595 76.1795 89.475 75.7109C89.5904 75.2423 89.8388 74.8191 90.1919 74.4895L100.982 64.416L98.2097 49.673C98.1285 49.2058 98.178 48.7299 98.3528 48.2964C98.5277 47.8629 98.8213 47.488 99.2022 47.2122C99.5998 46.9356 100.072 46.7764 100.566 46.7527C101.06 46.729 101.555 46.8416 101.995 47.0779L115.585 54.3128L128.872 47.6448C129.308 47.4237 129.803 47.3296 130.3 47.3733C130.797 47.4169 131.276 47.5965 131.682 47.8915C132.088 48.1865 132.405 48.585 132.596 49.0414C132.787 49.4977 132.844 49.9934 132.762 50.4716L130.404 65.0497L141.45 75.7179C141.809 76.063 142.066 76.4968 142.191 76.9703C142.317 77.4437 142.305 77.9377 142.158 78.3963C142.006 78.8388 141.733 79.2286 141.368 79.5238C141.003 79.819 140.559 80.0085 140.085 80.0719L125.05 81.8744L118.582 95.0888C118.372 95.5326 118.034 95.9041 117.61 96.1592C117.185 96.4144 116.69 96.5427 116.185 96.5289C115.599 96.5069 115.031 96.2954 114.569 95.9275ZM110.064 77.0616C110.417 77.305 110.701 77.6324 110.889 78.0115L115.971 88.0685L120.868 78.2307C121.054 77.8543 121.333 77.5313 121.68 77.2899C122.027 77.0484 122.432 76.8958 122.859 76.8454L133.833 75.4969L125.707 67.6188C125.422 67.3128 125.212 66.9475 125.094 66.5525C124.977 66.1576 124.955 65.7441 125.031 65.3455L126.694 54.6217L116.862 59.4092C116.485 59.5928 116.066 59.6831 115.64 59.6725C115.214 59.6619 114.793 59.5507 114.414 59.3482L104.387 54.0346L106.379 64.8058C106.459 65.2246 106.433 65.6528 106.304 66.053C106.176 66.4532 105.948 66.8133 105.642 67.1019L97.7094 74.5749L108.922 76.3591C109.358 76.4871 109.754 76.7303 110.064 77.0616Z" stroke="url(#paint3_angular_150_242)"/>
<defs>
<radialGradient id="paint0_angular_150_242" cx="0" cy="0" r="1" gradientUnits="userSpaceOnUse" gradientTransform="translate(134.764 52.466) rotate(57.7357) scale(82.231 85.121)">
<stop stop-color="#FF59F8"/>
<stop offset="0.197917" stop-color="#AE72FF"/>
<stop offset="0.40625" stop-color="#90E9ED"/>
<stop offset="0.619792" stop-color="#5CD167"/>
<stop offset="0.825321" stop-color="#FFEE00"/>
</radialGradient>
<radialGradient id="paint1_angular_150_242" cx="0" cy="0" r="1" gradientUnits="userSpaceOnUse" gradientTransform="translate(134.764 52.466) rotate(57.7357) scale(82.231 85.121)">
<stop stop-color="#FF59F8"/>
<stop offset="0.197917" stop-color="#AE72FF"/>
<stop offset="0.40625" stop-color="#90E9ED"/>
<stop offset="0.619792" stop-color="#5CD167"/>
<stop offset="0.825321" stop-color="#FFEE00"/>
</radialGradient>
<radialGradient id="paint2_angular_150_242" cx="0" cy="0" r="1" gradientUnits="userSpaceOnUse" gradientTransform="translate(126.672 67.8444) rotate(94.1271) scale(35.1472 36.6898)">
<stop stop-color="#FF59F8"/>
<stop offset="0.197917" stop-color="#AE72FF"/>
<stop offset="0.40625" stop-color="#90E9ED"/>
<stop offset="0.619792" stop-color="#5CD167"/>
<stop offset="0.825321" stop-color="#FFEE00"/>
</radialGradient>
<radialGradient id="paint3_angular_150_242" cx="0" cy="0" r="1" gradientUnits="userSpaceOnUse" gradientTransform="translate(126.672 67.8444) rotate(94.1271) scale(35.1472 36.6898)">
<stop stop-color="#FF59F8"/>
<stop offset="0.197917" stop-color="#AE72FF"/>
<stop offset="0.40625" stop-color="#90E9ED"/>
<stop offset="0.619792" stop-color="#5CD167"/>
<stop offset="0.825321" stop-color="#FFEE00"/>
</radialGradient>
</defs>
</svg>
