<svg width="298" height="270" viewBox="0 0 298 270" fill="none" xmlns="http://www.w3.org/2000/svg">
<path d="M297.5 135C297.5 209.237 231.062 269.5 149 269.5C66.9381 269.5 0.5 209.237 0.5 135C0.5 60.763 66.9381 0.5 149 0.5C231.062 0.5 297.5 60.763 297.5 135Z" fill="white" stroke="#8E54E9"/>
<path d="M50.98 178.432C50.404 177.376 49.612 176.572 48.604 176.02C47.596 175.468 46.42 175.192 45.076 175.192C43.588 175.192 42.268 175.528 41.116 176.2C39.964 176.872 39.064 177.832 38.416 179.08C37.768 180.328 37.444 181.768 37.444 183.4C37.444 185.08 37.768 186.544 38.416 187.792C39.088 189.04 40.012 190 41.188 190.672C42.364 191.344 43.732 191.68 45.292 191.68C47.212 191.68 48.784 191.176 50.008 190.168C51.232 189.136 52.036 187.708 52.42 185.884H43.78V182.032H57.388V186.424C57.052 188.176 56.332 189.796 55.228 191.284C54.124 192.772 52.696 193.972 50.944 194.884C49.216 195.772 47.272 196.216 45.112 196.216C42.688 196.216 40.492 195.676 38.524 194.596C36.58 193.492 35.044 191.968 33.916 190.024C32.812 188.08 32.26 185.872 32.26 183.4C32.26 180.928 32.812 178.72 33.916 176.776C35.044 174.808 36.58 173.284 38.524 172.204C40.492 171.1 42.676 170.548 45.076 170.548C47.908 170.548 50.368 171.244 52.456 172.636C54.544 174.004 55.984 175.936 56.776 178.432H50.98ZM59.8208 185.956C59.8208 183.94 60.2168 182.152 61.0088 180.592C61.8248 179.032 62.9168 177.832 64.2848 176.992C65.6768 176.152 67.2248 175.732 68.9288 175.732C70.4168 175.732 71.7128 176.032 72.8168 176.632C73.9448 177.232 74.8448 177.988 75.5168 178.9V176.056H80.5928V196H75.5168V193.084C74.8688 194.02 73.9688 194.8 72.8168 195.424C71.6888 196.024 70.3808 196.324 68.8928 196.324C67.2128 196.324 65.6768 195.892 64.2848 195.028C62.9168 194.164 61.8248 192.952 61.0088 191.392C60.2168 189.808 59.8208 187.996 59.8208 185.956ZM75.5168 186.028C75.5168 184.804 75.2768 183.76 74.7968 182.896C74.3168 182.008 73.6688 181.336 72.8528 180.88C72.0368 180.4 71.1608 180.16 70.2248 180.16C69.2888 180.16 68.4248 180.388 67.6328 180.844C66.8408 181.3 66.1928 181.972 65.6888 182.86C65.2088 183.724 64.9688 184.756 64.9688 185.956C64.9688 187.156 65.2088 188.212 65.6888 189.124C66.1928 190.012 66.8408 190.696 67.6328 191.176C68.4488 191.656 69.3128 191.896 70.2248 191.896C71.1608 191.896 72.0368 191.668 72.8528 191.212C73.6688 190.732 74.3168 190.06 74.7968 189.196C75.2768 188.308 75.5168 187.252 75.5168 186.028ZM110.283 175.768C112.731 175.768 114.699 176.524 116.187 178.036C117.699 179.524 118.455 181.612 118.455 184.3V196H113.415V184.984C113.415 183.424 113.019 182.236 112.227 181.42C111.435 180.58 110.355 180.16 108.987 180.16C107.619 180.16 106.527 180.58 105.711 181.42C104.919 182.236 104.523 183.424 104.523 184.984V196H99.4833V184.984C99.4833 183.424 99.0873 182.236 98.2953 181.42C97.5033 180.58 96.4233 180.16 95.0553 180.16C93.6633 180.16 92.5593 180.58 91.7433 181.42C90.9513 182.236 90.5553 183.424 90.5553 184.984V196H85.5153V176.056H90.5553V178.468C91.2033 177.628 92.0313 176.968 93.0393 176.488C94.0713 176.008 95.1993 175.768 96.4233 175.768C97.9833 175.768 99.3753 176.104 100.599 176.776C101.823 177.424 102.771 178.36 103.443 179.584C104.091 178.432 105.027 177.508 106.251 176.812C107.499 176.116 108.843 175.768 110.283 175.768ZM141.778 185.596C141.778 186.316 141.73 186.964 141.634 187.54H127.054C127.174 188.98 127.678 190.108 128.566 190.924C129.454 191.74 130.546 192.148 131.842 192.148C133.714 192.148 135.046 191.344 135.838 189.736H141.274C140.698 191.656 139.594 193.24 137.962 194.488C136.33 195.712 134.326 196.324 131.95 196.324C130.03 196.324 128.302 195.904 126.766 195.064C125.254 194.2 124.066 192.988 123.202 191.428C122.362 189.868 121.942 188.068 121.942 186.028C121.942 183.964 122.362 182.152 123.202 180.592C124.042 179.032 125.218 177.832 126.73 176.992C128.242 176.152 129.982 175.732 131.95 175.732C133.846 175.732 135.538 176.14 137.026 176.956C138.538 177.772 139.702 178.936 140.518 180.448C141.358 181.936 141.778 183.652 141.778 185.596ZM136.558 184.156C136.534 182.86 136.066 181.828 135.154 181.06C134.242 180.268 133.126 179.872 131.806 179.872C130.558 179.872 129.502 180.256 128.638 181.024C127.798 181.768 127.282 182.812 127.09 184.156H136.558ZM150.497 174.94V181.24H158.957V185.236H150.497V191.896H160.037V196H145.457V170.836H160.037V174.94H150.497ZM172.249 196.324C170.617 196.324 169.153 196.036 167.857 195.46C166.561 194.86 165.529 194.056 164.761 193.048C164.017 192.04 163.609 190.924 163.537 189.7H168.613C168.709 190.468 169.081 191.104 169.729 191.608C170.401 192.112 171.229 192.364 172.213 192.364C173.173 192.364 173.917 192.172 174.445 191.788C174.997 191.404 175.273 190.912 175.273 190.312C175.273 189.664 174.937 189.184 174.265 188.872C173.617 188.536 172.573 188.176 171.133 187.792C169.645 187.432 168.421 187.06 167.461 186.676C166.525 186.292 165.709 185.704 165.013 184.912C164.341 184.12 164.005 183.052 164.005 181.708C164.005 180.604 164.317 179.596 164.941 178.684C165.589 177.772 166.501 177.052 167.677 176.524C168.877 175.996 170.281 175.732 171.889 175.732C174.265 175.732 176.161 176.332 177.577 177.532C178.993 178.708 179.773 180.304 179.917 182.32H175.093C175.021 181.528 174.685 180.904 174.085 180.448C173.509 179.968 172.729 179.728 171.745 179.728C170.833 179.728 170.125 179.896 169.621 180.232C169.141 180.568 168.901 181.036 168.901 181.636C168.901 182.308 169.237 182.824 169.909 183.184C170.581 183.52 171.625 183.868 173.041 184.228C174.481 184.588 175.669 184.96 176.605 185.344C177.541 185.728 178.345 186.328 179.017 187.144C179.713 187.936 180.073 188.992 180.097 190.312C180.097 191.464 179.773 192.496 179.125 193.408C178.501 194.32 177.589 195.04 176.389 195.568C175.213 196.072 173.833 196.324 172.249 196.324ZM190.102 180.196V189.844C190.102 190.516 190.258 191.008 190.57 191.32C190.906 191.608 191.458 191.752 192.226 191.752H194.566V196H191.398C187.15 196 185.026 193.936 185.026 189.808V180.196H182.65V176.056H185.026V171.124H190.102V176.056H194.566V180.196H190.102ZM216.731 185.596C216.731 186.316 216.683 186.964 216.587 187.54H202.007C202.127 188.98 202.631 190.108 203.519 190.924C204.407 191.74 205.499 192.148 206.795 192.148C208.667 192.148 209.999 191.344 210.791 189.736H216.227C215.651 191.656 214.547 193.24 212.915 194.488C211.283 195.712 209.279 196.324 206.903 196.324C204.983 196.324 203.255 195.904 201.719 195.064C200.207 194.2 199.019 192.988 198.155 191.428C197.315 189.868 196.895 188.068 196.895 186.028C196.895 183.964 197.315 182.152 198.155 180.592C198.995 179.032 200.171 177.832 201.683 176.992C203.195 176.152 204.935 175.732 206.903 175.732C208.799 175.732 210.491 176.14 211.979 176.956C213.491 177.772 214.655 178.936 215.471 180.448C216.311 181.936 216.731 183.652 216.731 185.596ZM211.511 184.156C211.487 182.86 211.019 181.828 210.107 181.06C209.195 180.268 208.079 179.872 206.759 179.872C205.511 179.872 204.455 180.256 203.591 181.024C202.751 181.768 202.235 182.812 202.043 184.156H211.511ZM225.45 169.36V196H220.41V169.36H225.45ZM229.133 185.956C229.133 183.94 229.529 182.152 230.321 180.592C231.137 179.032 232.229 177.832 233.597 176.992C234.989 176.152 236.537 175.732 238.241 175.732C239.729 175.732 241.025 176.032 242.129 176.632C243.257 177.232 244.157 177.988 244.829 178.9V176.056H249.905V196H244.829V193.084C244.181 194.02 243.281 194.8 242.129 195.424C241.001 196.024 239.693 196.324 238.205 196.324C236.525 196.324 234.989 195.892 233.597 195.028C232.229 194.164 231.137 192.952 230.321 191.392C229.529 189.808 229.133 187.996 229.133 185.956ZM244.829 186.028C244.829 184.804 244.589 183.76 244.109 182.896C243.629 182.008 242.981 181.336 242.165 180.88C241.349 180.4 240.473 180.16 239.537 180.16C238.601 180.16 237.737 180.388 236.945 180.844C236.153 181.3 235.505 181.972 235.001 182.86C234.521 183.724 234.281 184.756 234.281 185.956C234.281 187.156 234.521 188.212 235.001 189.124C235.505 190.012 236.153 190.696 236.945 191.176C237.761 191.656 238.625 191.896 239.537 191.896C240.473 191.896 241.349 191.668 242.165 191.212C242.981 190.732 243.629 190.06 244.109 189.196C244.589 188.308 244.829 187.252 244.829 186.028ZM259.868 179.152C260.516 178.096 261.356 177.268 262.388 176.668C263.444 176.068 264.644 175.768 265.988 175.768V181.06H264.656C263.072 181.06 261.872 181.432 261.056 182.176C260.264 182.92 259.868 184.216 259.868 186.064V196H254.828V176.056H259.868V179.152Z" fill="black"/>
<path d="M180.667 144.971C179.672 144.974 178.69 144.748 177.804 144.311L146.062 128.298L114.32 144.311C113.289 144.833 112.127 145.066 110.966 144.984C109.805 144.901 108.69 144.507 107.75 143.844C106.81 143.182 106.082 142.279 105.648 141.238C105.214 140.196 105.092 139.059 105.295 137.954L111.519 104.19L85.8768 80.2013C85.0768 79.432 84.5093 78.4673 84.2351 77.4108C83.961 76.3542 83.9907 75.2457 84.3209 74.2042C84.6816 73.1383 85.3452 72.1912 86.2363 71.4704C87.1274 70.7496 88.2103 70.2839 89.3622 70.1261L124.839 65.1485L140.461 34.3831C140.97 33.3691 141.766 32.514 142.757 31.9157C143.747 31.3173 144.893 31 146.062 31C147.231 31 148.377 31.3173 149.368 31.9157C150.358 32.514 151.154 33.3691 151.664 34.3831L167.472 65.0885L202.949 70.0661C204.101 70.2239 205.184 70.6896 206.075 71.4104C206.966 72.1313 207.629 73.0783 207.99 74.1442C208.32 75.1857 208.35 76.2943 208.076 77.3508C207.802 78.4074 207.234 79.3721 206.434 80.1413L180.792 104.13L187.016 137.894C187.238 139.018 187.121 140.18 186.68 141.243C186.239 142.306 185.492 143.225 184.526 143.891C183.399 144.652 182.042 145.032 180.667 144.971ZM146.062 115.585C147.06 115.56 148.047 115.788 148.925 116.244L172.389 128.239L167.908 102.99C167.734 102.026 167.808 101.036 168.122 100.106C168.437 99.1754 168.983 98.3333 169.713 97.653L188.385 80.0814L162.244 76.3631C161.286 76.1772 160.386 75.7762 159.618 75.1927C158.851 74.6092 158.236 73.8596 157.825 73.0047L146.062 50.5154L134.299 73.0047C133.849 73.8665 133.189 74.6109 132.377 75.1747C131.564 75.7385 130.622 76.105 129.631 76.2432L103.491 79.9614L122.162 97.5331C122.892 98.2134 123.438 99.0554 123.753 99.9858C124.068 100.916 124.141 101.907 123.967 102.871L119.486 127.819L142.95 115.824C143.944 115.468 145.022 115.385 146.062 115.585Z" fill="#770F32"/>
<path d="M180.667 144.971C179.672 144.974 178.69 144.748 177.804 144.311L146.062 128.298L114.32 144.311C113.289 144.833 112.127 145.066 110.966 144.984C109.805 144.901 108.69 144.507 107.75 143.844C106.81 143.182 106.082 142.279 105.648 141.238C105.214 140.196 105.092 139.059 105.295 137.954L111.519 104.19L85.8768 80.2013C85.0768 79.432 84.5093 78.4673 84.2351 77.4108C83.961 76.3542 83.9907 75.2457 84.3209 74.2042C84.6816 73.1383 85.3452 72.1912 86.2363 71.4704C87.1274 70.7496 88.2103 70.2839 89.3622 70.1261L124.839 65.1485L140.461 34.3831C140.97 33.3691 141.766 32.514 142.757 31.9157C143.747 31.3173 144.893 31 146.062 31C147.231 31 148.377 31.3173 149.368 31.9157C150.358 32.514 151.154 33.3691 151.664 34.3831L167.472 65.0885L202.949 70.0661C204.101 70.2239 205.184 70.6896 206.075 71.4104C206.966 72.1313 207.629 73.0783 207.99 74.1442C208.32 75.1857 208.35 76.2943 208.076 77.3508C207.802 78.4074 207.234 79.3721 206.434 80.1413L180.792 104.13L187.016 137.894C187.238 139.018 187.121 140.18 186.68 141.243C186.239 142.306 185.492 143.225 184.526 143.891C183.399 144.652 182.042 145.032 180.667 144.971ZM146.062 115.585C147.06 115.56 148.047 115.788 148.925 116.244L172.389 128.239L167.908 102.99C167.734 102.026 167.808 101.036 168.122 100.106C168.437 99.1754 168.983 98.3333 169.713 97.653L188.385 80.0814L162.244 76.3631C161.286 76.1772 160.386 75.7762 159.618 75.1927C158.851 74.6092 158.236 73.8596 157.825 73.0047L146.062 50.5154L134.299 73.0047C133.849 73.8665 133.189 74.6109 132.377 75.1747C131.564 75.7385 130.622 76.105 129.631 76.2432L103.491 79.9614L122.162 97.5331C122.892 98.2134 123.438 99.0554 123.753 99.9858C124.068 100.916 124.141 101.907 123.967 102.871L119.486 127.819L142.95 115.824C143.944 115.468 145.022 115.385 146.062 115.585Z" fill="url(#paint0_angular_201_257)"/>
<path d="M180.667 144.971C179.672 144.974 178.69 144.748 177.804 144.311L146.062 128.298L114.32 144.311C113.289 144.833 112.127 145.066 110.966 144.984C109.805 144.901 108.69 144.507 107.75 143.844C106.81 143.182 106.082 142.279 105.648 141.238C105.214 140.196 105.092 139.059 105.295 137.954L111.519 104.19L85.8768 80.2013C85.0768 79.432 84.5093 78.4673 84.2351 77.4108C83.961 76.3542 83.9907 75.2457 84.3209 74.2042C84.6816 73.1383 85.3452 72.1912 86.2363 71.4704C87.1274 70.7496 88.2103 70.2839 89.3622 70.1261L124.839 65.1485L140.461 34.3831C140.97 33.3691 141.766 32.514 142.757 31.9157C143.747 31.3173 144.893 31 146.062 31C147.231 31 148.377 31.3173 149.368 31.9157C150.358 32.514 151.154 33.3691 151.664 34.3831L167.472 65.0885L202.949 70.0661C204.101 70.2239 205.184 70.6896 206.075 71.4104C206.966 72.1313 207.629 73.0783 207.99 74.1442C208.32 75.1857 208.35 76.2943 208.076 77.3508C207.802 78.4074 207.234 79.3721 206.434 80.1413L180.792 104.13L187.016 137.894C187.238 139.018 187.121 140.18 186.68 141.243C186.239 142.306 185.492 143.225 184.526 143.891C183.399 144.652 182.042 145.032 180.667 144.971ZM146.062 115.585C147.06 115.56 148.047 115.788 148.925 116.244L172.389 128.239L167.908 102.99C167.734 102.026 167.808 101.036 168.122 100.106C168.437 99.1754 168.983 98.3333 169.713 97.653L188.385 80.0814L162.244 76.3631C161.286 76.1772 160.386 75.7762 159.618 75.1927C158.851 74.6092 158.236 73.8596 157.825 73.0047L146.062 50.5154L134.299 73.0047C133.849 73.8665 133.189 74.6109 132.377 75.1747C131.564 75.7385 130.622 76.105 129.631 76.2432L103.491 79.9614L122.162 97.5331C122.892 98.2134 123.438 99.0554 123.753 99.9858C124.068 100.916 124.141 101.907 123.967 102.871L119.486 127.819L142.95 115.824C143.944 115.468 145.022 115.385 146.062 115.585Z" stroke="url(#paint1_angular_201_257)"/>
<path d="M144.17 118.927C143.823 118.678 143.54 118.352 143.344 117.978L136.415 104.446L121.301 101.959C120.81 101.879 120.347 101.666 119.965 101.345C119.582 101.023 119.297 100.606 119.139 100.14C118.982 99.6747 118.96 99.1795 119.076 98.7109C119.191 98.2423 119.439 97.8191 119.792 97.4895L130.583 87.416L127.81 72.673C127.729 72.2058 127.779 71.7299 127.953 71.2964C128.128 70.8629 128.422 70.488 128.803 70.2122C129.2 69.9356 129.673 69.7764 130.166 69.7527C130.66 69.729 131.155 69.8416 131.595 70.0779L145.186 77.3128L158.473 70.6448C158.909 70.4237 159.404 70.3296 159.901 70.3733C160.398 70.4169 160.877 70.5965 161.282 70.8915C161.688 71.1865 162.005 71.585 162.196 72.0414C162.387 72.4977 162.445 72.9934 162.363 73.4716L160.004 88.0497L171.05 98.7179C171.41 99.063 171.667 99.4968 171.792 99.9703C171.917 100.444 171.905 100.938 171.758 101.396C171.607 101.839 171.334 102.229 170.969 102.524C170.603 102.819 170.16 103.008 169.685 103.072L154.651 104.874L148.182 118.089C147.972 118.533 147.635 118.904 147.21 119.159C146.785 119.414 146.291 119.543 145.785 119.529C145.199 119.507 144.631 119.295 144.17 118.927ZM139.665 100.062C140.017 100.305 140.302 100.632 140.49 101.011L145.572 111.068L150.469 101.231C150.655 100.854 150.933 100.531 151.28 100.29C151.627 100.048 152.032 99.8958 152.459 99.8454L163.434 98.4969L155.307 90.6188C155.022 90.3128 154.812 89.9475 154.695 89.5525C154.577 89.1576 154.556 88.7441 154.631 88.3455L156.295 77.6217L146.463 82.4092C146.086 82.5928 145.667 82.6831 145.24 82.6725C144.814 82.6619 144.394 82.5507 144.014 82.3482L133.987 77.0346L135.98 87.8058C136.059 88.2246 136.034 88.6528 135.905 89.053C135.777 89.4532 135.549 89.8133 135.242 90.1019L127.31 97.5749L138.523 99.3591C138.959 99.4871 139.354 99.7303 139.665 100.062Z" fill="#770F32"/>
<path d="M144.17 118.927C143.823 118.678 143.54 118.352 143.344 117.978L136.415 104.446L121.301 101.959C120.81 101.879 120.347 101.666 119.965 101.345C119.582 101.023 119.297 100.606 119.139 100.14C118.982 99.6747 118.96 99.1795 119.076 98.7109C119.191 98.2423 119.439 97.8191 119.792 97.4895L130.583 87.416L127.81 72.673C127.729 72.2058 127.779 71.7299 127.953 71.2964C128.128 70.8629 128.422 70.488 128.803 70.2122C129.2 69.9356 129.673 69.7764 130.166 69.7527C130.66 69.729 131.155 69.8416 131.595 70.0779L145.186 77.3128L158.473 70.6448C158.909 70.4237 159.404 70.3296 159.901 70.3733C160.398 70.4169 160.877 70.5965 161.282 70.8915C161.688 71.1865 162.005 71.585 162.196 72.0414C162.387 72.4977 162.445 72.9934 162.363 73.4716L160.004 88.0497L171.05 98.7179C171.41 99.063 171.667 99.4968 171.792 99.9703C171.917 100.444 171.905 100.938 171.758 101.396C171.607 101.839 171.334 102.229 170.969 102.524C170.603 102.819 170.16 103.008 169.685 103.072L154.651 104.874L148.182 118.089C147.972 118.533 147.635 118.904 147.21 119.159C146.785 119.414 146.291 119.543 145.785 119.529C145.199 119.507 144.631 119.295 144.17 118.927ZM139.665 100.062C140.017 100.305 140.302 100.632 140.49 101.011L145.572 111.068L150.469 101.231C150.655 100.854 150.933 100.531 151.28 100.29C151.627 100.048 152.032 99.8958 152.459 99.8454L163.434 98.4969L155.307 90.6188C155.022 90.3128 154.812 89.9475 154.695 89.5525C154.577 89.1576 154.556 88.7441 154.631 88.3455L156.295 77.6217L146.463 82.4092C146.086 82.5928 145.667 82.6831 145.24 82.6725C144.814 82.6619 144.394 82.5507 144.014 82.3482L133.987 77.0346L135.98 87.8058C136.059 88.2246 136.034 88.6528 135.905 89.053C135.777 89.4532 135.549 89.8133 135.242 90.1019L127.31 97.5749L138.523 99.3591C138.959 99.4871 139.354 99.7303 139.665 100.062Z" fill="url(#paint2_angular_201_257)"/>
<path d="M144.17 118.927C143.823 118.678 143.54 118.352 143.344 117.978L136.415 104.446L121.301 101.959C120.81 101.879 120.347 101.666 119.965 101.345C119.582 101.023 119.297 100.606 119.139 100.14C118.982 99.6747 118.96 99.1795 119.076 98.7109C119.191 98.2423 119.439 97.8191 119.792 97.4895L130.583 87.416L127.81 72.673C127.729 72.2058 127.779 71.7299 127.953 71.2964C128.128 70.8629 128.422 70.488 128.803 70.2122C129.2 69.9356 129.673 69.7764 130.166 69.7527C130.66 69.729 131.155 69.8416 131.595 70.0779L145.186 77.3128L158.473 70.6448C158.909 70.4237 159.404 70.3296 159.901 70.3733C160.398 70.4169 160.877 70.5965 161.282 70.8915C161.688 71.1865 162.005 71.585 162.196 72.0414C162.387 72.4977 162.445 72.9934 162.363 73.4716L160.004 88.0497L171.05 98.7179C171.41 99.063 171.667 99.4968 171.792 99.9703C171.917 100.444 171.905 100.938 171.758 101.396C171.607 101.839 171.334 102.229 170.969 102.524C170.603 102.819 170.16 103.008 169.685 103.072L154.651 104.874L148.182 118.089C147.972 118.533 147.635 118.904 147.21 119.159C146.785 119.414 146.291 119.543 145.785 119.529C145.199 119.507 144.631 119.295 144.17 118.927ZM139.665 100.062C140.017 100.305 140.302 100.632 140.49 101.011L145.572 111.068L150.469 101.231C150.655 100.854 150.933 100.531 151.28 100.29C151.627 100.048 152.032 99.8958 152.459 99.8454L163.434 98.4969L155.307 90.6188C155.022 90.3128 154.812 89.9475 154.695 89.5525C154.577 89.1576 154.556 88.7441 154.631 88.3455L156.295 77.6217L146.463 82.4092C146.086 82.5928 145.667 82.6831 145.24 82.6725C144.814 82.6619 144.394 82.5507 144.014 82.3482L133.987 77.0346L135.98 87.8058C136.059 88.2246 136.034 88.6528 135.905 89.053C135.777 89.4532 135.549 89.8133 135.242 90.1019L127.31 97.5749L138.523 99.3591C138.959 99.4871 139.354 99.7303 139.665 100.062Z" stroke="url(#paint3_angular_201_257)"/>
<defs>
<radialGradient id="paint0_angular_201_257" cx="0" cy="0" r="1" gradientUnits="userSpaceOnUse" gradientTransform="translate(164.365 75.466) rotate(57.7357) scale(82.231 85.121)">
<stop stop-color="#FF59F8"/>
<stop offset="0.197917" stop-color="#AE72FF"/>
<stop offset="0.40625" stop-color="#90E9ED"/>
<stop offset="0.619792" stop-color="#5CD167"/>
<stop offset="0.825321" stop-color="#FFEE00"/>
</radialGradient>
<radialGradient id="paint1_angular_201_257" cx="0" cy="0" r="1" gradientUnits="userSpaceOnUse" gradientTransform="translate(164.365 75.466) rotate(57.7357) scale(82.231 85.121)">
<stop stop-color="#FF59F8"/>
<stop offset="0.197917" stop-color="#AE72FF"/>
<stop offset="0.40625" stop-color="#90E9ED"/>
<stop offset="0.619792" stop-color="#5CD167"/>
<stop offset="0.825321" stop-color="#FFEE00"/>
</radialGradient>
<radialGradient id="paint2_angular_201_257" cx="0" cy="0" r="1" gradientUnits="userSpaceOnUse" gradientTransform="translate(156.273 90.8444) rotate(94.1271) scale(35.1472 36.6898)">
<stop stop-color="#FF59F8"/>
<stop offset="0.197917" stop-color="#AE72FF"/>
<stop offset="0.40625" stop-color="#90E9ED"/>
<stop offset="0.619792" stop-color="#5CD167"/>
<stop offset="0.825321" stop-color="#FFEE00"/>
</radialGradient>
<radialGradient id="paint3_angular_201_257" cx="0" cy="0" r="1" gradientUnits="userSpaceOnUse" gradientTransform="translate(156.273 90.8444) rotate(94.1271) scale(35.1472 36.6898)">
<stop stop-color="#FF59F8"/>
<stop offset="0.197917" stop-color="#AE72FF"/>
<stop offset="0.40625" stop-color="#90E9ED"/>
<stop offset="0.619792" stop-color="#5CD167"/>
<stop offset="0.825321" stop-color="#FFEE00"/>
</radialGradient>
</defs>
</svg>
